<svg
  version="1.0"
  xmlns="http://www.w3.org/2000/svg"
  width="25.000000pt"
  height="25.000000pt"
  viewBox="0 0 268.000000 273.000000"
  preserveAspectRatio="xMidYMid meet"
>
  <g
    transform="translate(0.000000,273.000000) scale(0.100000,-0.100000)"
    fill="#6741d9"
    stroke="none"
  >
    <path
      d="M1377 2154 c-91 -33 -235 -159 -337 -295 -98 -132 -210 -379 -210
                  -465 0 -72 56 -125 116 -110 46 12 77 58 113 165 62 186 157 325 345 509 103
                  100 116 117 116 147 0 60 -59 80 -143 49z"
    />
    <path
      d="M1682 1972 c-125 -45 -243 -158 -382 -369 -154 -232 -239 -437 -243
                  -583 -2 -95 43 -170 102 -170 38 0 85 55 101 119 63 244 100 328 232 524 92
                  136 204 259 282 311 72 48 88 68 84 107 -6 65 -86 92 -176 61z"
    />
  </g>
</svg>
