<svg
  version="1.0"
  xmlns="http://www.w3.org/2000/svg"
  width="25.000000pt"
  height="25.000000pt"
  viewBox="0 0 268.000000 273.000000"
  preserveAspectRatio="xMidYMid meet"
>
  <g
    transform="translate(0.000000,273.000000) scale(0.100000,-0.100000)"
    fill="#27272a"
    stroke="none"
  >
    <path
      d="M1171 2144 c-37 -47 -28 -62 106 -189 173 -162 282 -327 353 -533 37
                    -105 69 -142 124 -142 76 0 115 72 91 165 -22 84 -80 219 -129 303 -169 289
                    -462 501 -545 396z"
    />
    <path
      d="M863 1974 c-39 -20 -55 -59 -39 -97 6 -14 43 -48 81 -75 86 -61 162
                    -140 245 -257 144 -203 212 -341 250 -508 23 -101 46 -146 91 -179 34 -26 70
                    -11 106 43 24 37 28 52 27 113 -1 98 -34 209 -103 351 -65 132 -191 329 -267
                    416 -140 159 -301 239 -391 193z"
    />
  </g>
</svg>
